<svg xmlns="http://www.w3.org/2000/svg" width="163.839" height="163.839" fill-rule="evenodd" clip-rule="evenodd" image-rendering="optimizeQuality" shape-rendering="geometricPrecision" text-rendering="geometricPrecision" viewBox="0 0 1707 1707" id="business"><path fill="#666" fill-rule="nonzero" d="M1706 1334c0,3 0,4 0,5l0 0 1 5 0 0c0,11 -9,21 -20,21l-1491 0c-17,0 -20,-14 -19,-26l0 0 0 0 0 0c3,-82 -74,-143 -152,-123l0 0c-13,3 -25,-6 -25,-20l0 -134c0,-42 67,5 144,-72 110,-110 31,-298 -124,-298l0 0c-11,0 -20,-9 -20,-20l0 -162c0,-30 37,-16 55,-16 69,0 124,-57 122,-126l0 0 -1 -5 0 0c0,-11 9,-21 20,-21l1491 0c17,0 20,13 19,26l0 0 0 0 0 0 0 5 0 961zm0 5l-19 0 0 -5 19 0c0,2 0,3 0,5l-19 0 19 0 0 0zm-1489 -14l1449 0 0 -943 -1449 0c-5,91 -85,160 -177,152l0 119c180,16 261,237 132,366 -34,34 -81,57 -132,62l0 92c92,-9 172,61 177,152z"></path><path fill="#666" fill-rule="nonzero" d="M930 1006c-18,19 10,47 29,29l334 -335c19,-18 -10,-47 -28,-28l-335 334z"></path><path fill="#ffb300" fill-rule="nonzero" d="M1147 888c60-60 162-17 162 68 0 24-9 48-28 67l0 0c-38 38-97 37-135 0l15-14-15 14c-37-38-37-98 0-135l15 14-15-14 1 0zM943 682c61-58 162-15 162 69 0 85-103 128-163 68l14-15-14 15c-40-40-35-106 1-137z"></path><path fill="#666" fill-rule="nonzero" d="M522 424c0-26-40-26-40 0l0 40c0 27 40 26 40 0l0-40zm-40 760c0 27 40 26 40 0l0-40c0-26-40-26-40 0l0 40zm0-240c0 27 40 26 40 0l0-40c0-26-40-26-40 0l0 40zm0-240c0 27 40 26 40 0l0-40c0-26-40-26-40 0l0 40zM1112 489c323 0 486 393 257 622-229 228-621 65-621-258 0-201 163-364 364-364zm229 135c-204-203-553-58-553 229 0 288 349 433 553 229 126-126 126-331 0-458z"></path></svg>