<svg xmlns="http://www.w3.org/2000/svg" width="100" height="100" viewBox="0 0 100 100" id="no"><g fill="none" fill-rule="evenodd" transform="translate(-300 -750)"><g fill="#000" transform="translate(157.96 156.62)"><path d="M174.82364 675.678835L175.171724 676.269379C174.511522 676.689805 173.981958 677.114723 173.565928 677.535042 172.773928 678.335042 172.422928 679.112042 172.424919 679.828042 172.427928 680.660042 172.927928 681.377042 173.672928 681.898042 174.670928 682.596042 176.111928 682.945042 177.570928 682.696042 179.623375 682.358721 181.288957 681.708039 182.660888 680.88667L183.775134 681.226188C183.589858 681.356483 183.398875 681.4839 183.201928 681.608042 181.741928 682.528042 179.954928 683.266042 177.736928 683.663042 176.001928 683.963042 174.280928 683.548042 173.101928 682.706042 172.090928 681.983042 171.468928 680.955042 171.498928 679.817042 171.522928 678.912042 171.952928 677.911042 173.003928 676.950042 173.476334 676.517805 174.077411 676.090689 174.82364 675.678835zM175.168736 656.675916L174.458018 658.21665C174.291533 658.350845 174.129194 658.485334 173.970928 658.620042 173.312928 659.180042 172.730928 659.745042 172.213928 660.306042 171.625928 660.945042 171.123928 661.577042 170.710928 662.197042 169.693928 663.723042 169.200928 665.153042 169.176928 666.269042 169.161928 666.941042 169.304928 667.488042 169.632928 667.828042 169.982928 668.192042 170.455928 668.255042 170.977928 668.137042 171.322796 668.059236 171.686336 667.907239 172.055458 667.700682L172.165843 668.486192C171.673053 668.750237 171.188583 668.920119 170.739928 668.970042 170.091928 669.043042 169.510928 668.873042 169.042928 668.412042 168.569928 667.948042 168.294928 667.203042 168.292914 666.260042 168.289928 665.010042 168.770928 663.379042 169.887928 661.656042 170.320928 660.988042 170.848928 660.303042 171.486928 659.628042 172.038928 659.044042 172.671928 658.466042 173.388928 657.906042 173.903928 657.505042 174.460928 657.113042 175.065928 656.739042 175.10005 656.717941 175.13432 656.696899 175.168736 656.675916zM204.085966 670.715212C204.890011 670.919045 205.60619 671.34007 206.165928 671.916042 206.950928 672.723042 207.432928 673.828042 207.413928 675.042042 207.394928 676.242042 206.896928 677.324042 206.096928 678.098042 205.305928 678.863042 204.225928 679.332042 203.039928 679.312042 201.840928 679.366042 200.734928 678.920042 199.920928 678.161042 199.807037 678.054672 199.699278 677.942039 199.598026 677.823706L200.265797 677.297582C200.340217 677.394979 200.419394 677.48858 200.502928 677.578042 201.143928 678.265042 202.028928 678.726042 203.039928 678.771042 204.061928 678.754042 204.979928 678.322042 205.638928 677.641042 206.288928 676.969042 206.681928 676.049042 206.665928 675.042042 206.650928 674.048042 206.230928 673.155042 205.569928 672.512042 205.129201 672.083464 204.578237 671.768767 203.96469 671.613454z"></path><path d="M175.426372,655.77507 L176.222129,656.121718 C174.869787,658.161476 173.677496,660.244592 172.978928,662.510042 C172.180928,665.096042 172.034928,667.921042 173.047928,671.197042 C174.446928,675.725042 177.534928,678.813042 181.652928,680.222042 C182.439314,680.491217 183.262776,680.69945 184.11885,680.845288 L183.840533,681.433655 C183.011322,681.290587 182.211818,681.090543 181.445928,680.835042 C177.106928,679.389042 173.838928,676.168042 172.332928,671.421042 C171.240928,667.979042 171.377928,665.002042 172.198928,662.273042 C172.890971,659.974316 174.076853,657.85279 175.426372,655.77507 Z M202.107507,657.781276 C203.364393,660.218146 204.140814,662.81956 204.517928,665.805042 C205.005928,669.772042 204.388928,672.853042 202.732928,675.227042 C201.906225,676.412332 200.819645,677.423037 199.478818,678.279547 C199.527708,677.988889 199.579105,677.683606 199.633985,677.362535 C200.636468,676.61714 201.46285,675.768233 202.109928,674.802042 C203.621928,672.542042 204.137928,669.641042 203.620928,665.923042 C203.223594,662.985996 202.421037,660.445364 201.145889,658.060347 C201.421373,657.983078 201.731612,657.893956 202.046434,657.800025 Z"></path><path d="M188.436928 677.241042C186.711928 677.972042 185.476928 678.712042 184.652928 679.444042 183.552928 680.421042 183.159928 681.401042 183.210928 682.252042 183.258928 683.058042 183.712928 683.792042 184.477928 684.379042 185.605928 685.245042 187.445928 685.801042 189.474928 685.858042 193.923928 685.982042 199.290928 683.754042 199.861928 677.514042 199.876928 677.366042 199.768928 677.233042 199.620928 677.217042 199.471928 677.201042 199.338928 677.309042 199.322928 677.458042 198.638928 683.218042 193.625928 685.135042 189.510928 684.932042 188.005928 684.858042 186.623928 684.500042 185.621928 683.938042 184.804928 683.480042 184.241928 682.899042 184.181928 682.182042 184.127928 681.546042 184.464928 680.850042 185.244928 680.074042 185.984928 679.338042 187.089928 678.544042 188.666928 677.731042 188.801928 677.668042 188.859928 677.506042 188.796928 677.371042 188.732928 677.236042 188.571928 677.178042 188.436928 677.241042zM184.117928 664.241042C185.108928 664.985042 186.141928 665.724042 187.195928 666.331042 188.376928 667.012042 189.573928 667.538042 190.703928 667.788042 192.627928 668.214042 194.362928 667.853042 195.609928 666.266042 196.694928 664.863042 195.795928 663.465042 193.836928 662.397042 191.006928 660.854042 186.055928 659.896042 184.249928 660.064042 184.100928 660.075042 183.989928 660.205042 184.000928 660.354042 184.012928 660.503042 184.142928 660.615042 184.291928 660.603042 185.791928 660.510042 189.505928 661.303042 192.220928 662.519042 193.354928 663.027042 194.312928 663.602042 194.824928 664.233042 195.019928 664.474042 195.142928 664.719042 195.153928 664.973042 195.162928 665.207042 195.065928 665.439042 194.869928 665.680042 193.857928 666.943042 192.458928 667.138042 190.911928 666.819042 189.855928 666.601042 188.733928 666.149042 187.596928 665.583042 186.531928 665.053042 185.451928 664.440042 184.423928 663.795042 184.300928 663.711042 184.132928 663.742042 184.047928 663.865042 183.962928 663.988042 183.994928 664.157042 184.117928 664.241042zM184.807222 622.016673C184.234632 617.891764 185.121626 611.19012 187.112928 606.281042 188.119928 603.800042 189.418928 601.777042 190.927928 600.724042 192.300928 599.765042 193.850928 599.568042 195.543928 600.471042 196.773928 601.129042 197.441928 601.866042 197.729928 602.651042 197.973928 603.317042 197.951928 604.032042 197.718928 604.799042 197.409928 605.819042 196.715928 606.952042 195.851928 608.199042 195.197928 609.143042 194.446928 610.158042 193.709928 611.254042 192.728928 612.713042 191.775928 614.317042 191.117928 616.096042 190.513928 617.729042 190.149928 619.506042 190.266928 621.462042 190.278928 621.611042 190.167928 621.742042 190.018928 621.754042 189.869928 621.766042 189.739928 621.655042 189.726928 621.507042 189.510928 619.459042 189.791928 617.571042 190.363928 615.832042 190.978928 613.961042 191.927928 612.267042 192.916928 610.732042 193.635928 609.616042 194.378928 608.586042 195.030928 607.633042 195.821928 606.480042 196.482928 605.449042 196.771928 604.509042 196.939928 603.965042 196.980928 603.458042 196.810928 602.983042 196.592928 602.370042 196.044928 601.826042 195.092928 601.304042 193.433928 600.394042 191.939928 600.851042 190.651928 602.109042 189.575928 603.159042 188.639928 604.741042 187.856928 606.589042 185.83615 611.366295 184.854236 617.910895 185.3534 621.950722 185.23147 621.964245 185.117441 621.978097 185.011951 621.990696z"></path><path d="M206.388928,628.648042 C209.709928,632.159042 212.139928,637.009042 212.359928,643.273042 C212.528928,648.762042 210.257928,652.632042 207.171928,655.161042 C203.165928,658.443042 197.791928,659.447042 194.717928,658.875042 C194.570928,658.849042 194.472928,658.709042 194.498928,658.562042 C194.524928,658.415042 194.664928,658.316042 194.811928,658.342042 C197.764928,658.831042 202.874928,657.748042 206.658928,654.546042 C209.524928,652.122042 211.627928,648.468042 211.408928,643.308042 C211.181928,637.316042 208.840928,632.692042 205.666928,629.331042 C203.576399,627.118062 201.123672,625.450551 198.667674,624.308562 C198.757961,624.062223 198.874052,623.762911 199.015867,623.411473 C201.603778,624.588518 204.191023,626.324423 206.388928,628.648042 Z M192.246928,621.549042 C192.750336,621.591932 193.271092,621.66083 193.80495,621.756076 L193.501369,622.653412 C193.045014,622.573779 192.598901,622.51471 192.165928,622.476042 C185.301928,621.858042 179.799928,623.068042 175.967928,625.889042 C171.722928,629.015042 169.552928,634.115042 169.830928,640.828042 L169.784928,641.022042 C167.214928,645.514042 167.802928,649.423042 170.372928,652.252042 C172.735928,654.853042 176.737928,656.545042 181.457928,656.981042 C181.605928,656.994042 181.716928,657.126042 181.702928,657.275042 C181.689928,657.423042 181.558928,657.533042 181.409928,657.520042 C176.518928,657.104042 172.372928,655.355042 169.905928,652.679042 C167.151928,649.690042 166.450928,645.546042 169.107928,640.758042 C168.797928,633.792042 171.075928,628.500042 175.472928,625.220042 C179.428928,622.269042 185.122928,620.948042 192.246928,621.549042 Z"></path><path d="M198.255928 627.933042C198.303928 625.665042 198.999928 623.910042 200.041928 622.473042 201.201928 620.873042 202.797928 619.674042 204.438928 618.623042 205.604928 617.875042 206.793928 617.201042 207.868928 616.521042 209.181928 615.692042 210.327928 614.845042 211.094928 613.867042 212.173928 612.491042 212.550928 610.857042 211.623928 608.633042 211.091928 607.357042 210.341928 606.567042 209.459928 606.165042 208.509928 605.733042 207.391928 605.746042 206.186928 606.150042 204.583928 606.688042 202.805928 607.925042 201.083928 609.618042 197.049928 613.585042 193.288928 620.054042 192.664928 625.534042 192.646928 625.682042 192.752928 625.817042 192.901928 625.835042 193.049928 625.853042 193.184928 625.747042 193.202928 625.599042 193.889928 620.263042 197.657928 614.013042 201.645928 610.198042 203.282928 608.632042 204.952928 607.476042 206.462928 606.990042 207.428928 606.680042 208.319928 606.647042 209.073928 607.001042 209.769928 607.326042 210.333928 607.979042 210.745928 608.995042 211.483928 610.810042 211.198928 612.138042 210.315928 613.253042 209.605928 614.150042 208.538928 614.911042 207.334928 615.681042 206.259928 616.369042 205.075928 617.058042 203.919928 617.829042 202.208928 618.971042 200.555928 620.287042 199.388928 622.016042 198.326928 623.591042 197.663928 625.505042 197.714928 627.933042 197.714928 628.082042 197.835928 628.204042 197.985928 628.204042 198.134928 628.204042 198.255928 628.082042 198.255928 627.933042zM177.479928 652.620042C178.075928 652.595042 178.607928 652.241042 178.996928 651.672042 179.420928 651.052042 179.663928 650.165042 179.620928 649.192042 179.574928 648.204042 179.231928 647.334042 178.745928 646.746042 178.271928 646.173042 177.652928 645.871042 177.010928 645.903042 176.359928 645.937042 175.772928 646.318042 175.358928 646.948042 174.932928 647.598042 174.699928 648.525042 174.770928 649.531042 174.881928 650.522042 175.253928 651.390042 175.789928 651.941042 176.279928 652.446042 176.877928 652.707042 177.479928 652.620042zM177.441928 652.080042C177.025928 652.078042 176.667928 651.816042 176.376928 651.433042 176.220928 651.227042 176.094928 650.979042 175.988928 650.704042 175.847928 650.335042 175.758928 649.914042 175.742928 649.463042 175.700928 648.830042 175.813928 648.240042 176.028928 647.768042 176.263928 647.253042 176.613928 646.866042 177.074928 646.827042 177.545928 646.784042 177.978928 647.095042 178.303928 647.574042 178.601928 648.015042 178.812928 648.595042 178.873928 649.244042 178.936928 649.902042 178.844928 650.522042 178.629928 651.018042 178.375928 651.607042 177.963928 652.030042 177.441928 652.080042zM169.810928 640.563042C170.023928 640.660042 170.211928 640.745042 170.414928 640.811042 170.634928 640.882042 170.846928 640.925042 171.052928 640.954042 171.234928 640.979042 171.410928 640.985042 171.578928 640.983042 171.866928 640.980042 172.130928 640.948042 172.372928 640.904042 174.143928 640.584042 174.751928 639.654042 174.751928 639.654042 174.844928 639.537042 174.825928 639.367042 174.708928 639.274042 174.592928 639.180042 174.421928 639.199042 174.328928 639.316042 174.328928 639.316042 173.839928 639.781042 172.714928 639.943042 172.387928 639.991042 172.009928 639.994042 171.570928 639.987042 171.412928 639.985042 171.246928 639.982042 171.072928 639.983042 170.891928 639.984042 170.705928 639.990042 170.505928 639.997042 170.313928 640.003042 170.128928 640.028042 169.918928 640.033042 169.772928 640.003042 169.629928 640.098042 169.599928 640.244042 169.569928 640.390042 169.663928 640.533042 169.810928 640.563042zM185.059928 641.601042C185.240928 641.926042 185.459928 642.219042 185.722928 642.490042 185.892928 642.666042 186.082928 642.822042 186.283928 642.969042 186.527928 643.146042 186.790928 643.302042 187.066928 643.438042 187.334928 643.570042 187.615928 643.679042 187.901928 643.774042 188.587928 644.004042 189.299928 644.150042 189.967928 644.244042 191.679928 644.487042 193.099928 644.387042 193.099928 644.387042 193.248928 644.385042 193.368928 644.262042 193.365983 644.112042 193.362928 643.963042 193.239928 643.844042 193.090928 643.846042 193.090928 643.846042 191.050928 643.768042 189.003928 643.124042 188.618928 643.003042 188.235928 642.858042 187.860928 642.700042 187.613928 642.596042 187.371928 642.484042 187.134928 642.367042 186.835928 642.218042 186.546928 642.063042 186.275928 641.884042 185.994928 641.699042 185.725928 641.516042 185.493928 641.277042 185.404928 641.158042 185.235928 641.133042 185.115928 641.222042 184.995928 641.311042 184.970928 641.481042 185.059928 641.601042z"></path></g></g></svg>